<svg version="1.1" xmlns="http://www.w3.org/2000/svg" xmlns:xlink="http://www.w3.org/1999/xlink" width="217.86546" height="43.0564" viewBox="0,0,217.86546,43.0564"><g transform="translate(-183.01745,-125.20895)"><g data-paper-data="{&quot;isPaintingLayer&quot;:true}" fill="#727272" fill-rule="nonzero" stroke="#000000" stroke-width="4.22139" stroke-linecap="butt" stroke-linejoin="round" stroke-miterlimit="10" stroke-dasharray="" stroke-dashoffset="0" style="mix-blend-mode: normal"><path d="M203.50093,134.19406c1.54024,-3.50232 4.86445,-5.93654 8.72673,-5.93654c5.32465,0 9.6461,4.61279 9.6461,10.2964c0,11.19346 -11.33319,14.66437 -18.37283,26.02501c-7.44592,-11.43098 -18.37278,-14.46251 -18.37278,-26.02501c0,-5.68362 4.32145,-10.2964 9.6461,-10.2964c3.86231,0 7.18652,2.43423 8.72668,5.93654z"></path><path d="M248.40043,133.2562c1.54024,-3.50232 4.86445,-5.93655 8.72673,-5.93655c5.32465,0 9.6461,4.61279 9.6461,10.2964c0,11.19346 -11.33319,14.66438 -18.37283,26.02501c-7.44592,-11.43098 -18.37277,-14.46252 -18.37277,-26.02501c0,-5.68362 4.32145,-10.2964 9.6461,-10.2964c3.86231,0 7.18652,2.43423 8.72668,5.93655z"></path><path d="M292.54025,134.48368c1.54025,-3.50232 4.86445,-5.93655 8.72673,-5.93655c5.32465,0 9.6461,4.61279 9.6461,10.2964c0,11.19346 -11.3332,14.66438 -18.37283,26.02501c-7.44592,-11.43098 -18.37277,-14.46252 -18.37277,-26.02501c0,-5.68362 4.32145,-10.2964 9.6461,-10.2964c3.86231,0 7.18652,2.43423 8.72668,5.93655z"></path><path d="M380.39939,135.76979c1.54024,-3.50232 4.86445,-5.93654 8.72673,-5.93654c5.32465,0 9.6461,4.61279 9.6461,10.2964c0,11.19346 -11.33319,14.66437 -18.37283,26.02501c-7.44592,-11.43098 -18.37278,-14.46251 -18.37278,-26.02501c0,-5.68362 4.32145,-10.2964 9.6461,-10.2964c3.86231,0 7.18652,2.43423 8.72668,5.93654z"></path><path d="M335.92538,134.83193c1.54024,-3.50232 4.86445,-5.93655 8.72673,-5.93655c5.32465,0 9.6461,4.61279 9.6461,10.2964c0,11.19346 -11.33319,14.66438 -18.37283,26.02501c-7.44592,-11.43098 -18.37277,-14.46252 -18.37277,-26.02501c0,-5.68362 4.32145,-10.2964 9.6461,-10.2964c3.86231,0 7.18652,2.43423 8.72668,5.93655z"></path></g></g></svg>