<svg version="1.1" xmlns="http://www.w3.org/2000/svg" xmlns:xlink="http://www.w3.org/1999/xlink" width="229.18369" height="112" viewBox="0,0,229.18369,112"><g transform="translate(-64.05145,-139.60271)"><g data-paper-data="{&quot;isPaintingLayer&quot;:true}" fill-rule="nonzero" stroke-linecap="butt" stroke-linejoin="miter" stroke-miterlimit="10" stroke-dasharray="" stroke-dashoffset="0" style="mix-blend-mode: normal"><path d="M73.06848,243.76938c0,0 -3.66667,-2.19842 -3.66667,-11.66667c0,-20.13398 0,-53.54649 0,-65.66667c0,-8.67031 5.33333,-13.33333 5.33333,-13.33333c0,0 2.89166,-6 11.66667,-6c24.30636,0 139.78937,0 183.33333,0c10.37554,0 12.66667,5 12.66667,5c0,0 4,4.39225 4,12.33333c0,12.10288 0.33333,47.67659 0.33333,68.33333c0,9.12074 -4,11.66667 -4,11.66667c0,0 -2.3561,3.66667 -12.33333,3.66667c-42.93227,0 -159.08538,0 -183.66667,0c-8.92571,0 -13.66667,-4.33333 -13.66667,-4.33333z" fill="none" stroke="#9f9f9f" stroke-width="7"></path><path d="M75.65181,241.10271v-96h211.5v96z" fill="#00da4b" stroke="none" stroke-width="0"></path><path d="M76.06848,239.76938c0,0 -3.66667,-2.19842 -3.66667,-11.66667c0,-20.13398 0,-53.54649 0,-65.66667c0,-8.67031 5.33333,-13.33333 5.33333,-13.33333c0,0 2.89166,-6 11.66667,-6c24.30636,0 139.78937,0 183.33333,0c10.37554,0 12.66667,5 12.66667,5c0,0 4,4.39225 4,12.33333c0,12.10288 0.33333,47.67659 0.33333,68.33333c0,9.12074 -4,11.66667 -4,11.66667c0,0 -2.3561,3.66667 -12.33333,3.66667c-42.93227,0 -159.08538,0 -183.66667,0c-8.92571,0 -13.66667,-4.33333 -13.66667,-4.33333z" fill="#dee35a" stroke="#000000" stroke-width="7"></path><text transform="translate(92.31848,205.35783) scale(0.65297,0.82976)" font-size="40" xml:space="preserve" fill="#000000" fill-rule="nonzero" stroke="none" stroke-width="1" stroke-linecap="butt" stroke-linejoin="miter" stroke-miterlimit="10" stroke-dasharray="" stroke-dashoffset="0" font-family="Pixel" font-weight="normal" text-anchor="start" style="mix-blend-mode: normal"><tspan x="0" dy="0">PLAY AGAIN?</tspan></text></g></g></svg>